# xmcd CD database file
#
# Track frame offsets:
#	182
#	15882
#	28495
#	44282
#	54957
#	66520
#	81670
#	99607
#	118070
#	132820
#	145470
#	162070
#
# Disc length: 2366 seconds
#
# Revision: 2
# Processed by: cddbd v1.5.2PL0 Copyright (c) Steve Scherf et al.
# Submitted via: CDex 1.50Beta6
#
DISCID=a7093c0c
DTITLE=Tomeu Penya - Una Aclucada D'ull
DYEAR=1995
DGENRE=Country
TTITLE0=Una Aclucada D'ull
TTITLE1=Polvets Magics
TTITLE2=Ningu No Et Fa Ombra
TTITLE3=Pop Rock, Acop Un Poc De Tot
TTITLE4=Abans Que Comencis A Plorar
TTITLE5=Una Nit D'estiu
TTITLE6=Illes Dins Un Riu (with Marisa Rojas)
TTITLE7=Marcats Per Es Rock'n  Roll
TTITLE8=Gitana
TTITLE9=Que Passa Aqui?
TTITLE10=T'estim Aixi
TTITLE11=Ningu No Et Fa Ombra (versio Instrumental)
EXTD=YEAR: 1995
EXTT0=
EXTT1=
EXTT2=
EXTT3=
EXTT4=
EXTT5=
EXTT6=
EXTT7=
EXTT8=
EXTT9=
EXTT10=
EXTT11=
PLAYORDER=
